<svg xmlns="http://www.w3.org/2000/svg" width="104" height="100" fill="none" viewBox="0 0 104 100">
    <path fill="#017EB4" d="M33.032 67.593c7.134.17 16.703-2.37 24.687-7.505 11.494 8.69 21.29 9.142 25.367 4.797 2.888-3.16 2.322-9.086-1.076-15.35-3.454-6.264-10.475-13.374-18.968-17.72 1.811-14.277-2.662-23.023-8.55-24.265-4.19-.903-9.06 2.54-12.74 8.634-3.681 6.038-6.342 15.688-5.89 25.225-13.306 5.587-18.572 13.882-16.76 19.582 1.36 4.12 6.795 6.49 13.93 6.602zm34.313-22.29c7.36 6.715 9.003 13.77 7.078 16.76-2.152 3.386-7.984 2.652-15.855-2.483 0 0 10.306-6.828 8.777-14.277zM56.473 16.466c4.077.17 6.285 5.587 5.72 14.955 0 0-11.042-5.53-16.761-.452 2.152-9.706 7.417-14.728 11.041-14.503zm-4.02 20.598c4.077.056 7.361 3.386 7.304 7.449-.056 4.063-3.34 7.392-7.474 7.336-4.077-.056-7.36-3.386-7.36-7.449.056-4.12 3.397-7.393 7.53-7.336zM35.92 42.368s.793 12.302 8.097 14.616C34.504 60.031 27.54 58 25.841 54.84c-1.869-3.555 1.698-8.183 10.078-12.472zM13.27 92.48h12.684c3.057 0 5.549-2.483 5.549-5.53v-3.217c0-3.047-2.492-5.53-5.55-5.53H13.27c-3.057 0-5.549 2.483-5.549 5.53v3.216c0 3.104 2.492 5.53 5.55 5.53zm-2.83-8.69c0-1.58 1.245-2.822 2.83-2.822h12.684c1.529 0 2.83 1.241 2.83 2.821v3.217c0 1.523-1.301 2.822-2.83 2.822H13.27c-1.528 0-2.83-1.299-2.83-2.822v-3.217zM55.058 72.334v14.333c0 1.693-1.246 3.104-2.775 3.104H39.6c-1.529 0-2.831-1.41-2.831-3.104v-2.54c0-1.692 1.302-3.103 2.83-3.103h13.534v-2.709H39.6c-3.058 0-5.55 2.596-5.55 5.87v2.595c0 3.217 2.492 5.813 5.55 5.813h12.683c3.058 0 5.55-2.596 5.55-5.813V72.446h-2.775v-.112zM63.608 87.062V72.39H60.89v14.672c0 3.048 2.491 5.474 5.549 5.474h5.209v-2.652h-5.21c-1.528-.057-2.83-1.355-2.83-2.822zM72.327 83.79v3.216c0 3.047 2.492 5.53 5.55 5.53H90.56c3.057 0 5.492-2.483 5.492-5.53v-3.217c0-3.047-2.435-5.53-5.492-5.53H77.876c-3.057 0-5.549 2.483-5.549 5.53zm21.007 0v3.216c0 1.523-1.245 2.821-2.774 2.821H77.876c-1.585 0-2.774-1.297-2.774-2.821v-3.217c0-1.58 1.189-2.821 2.774-2.821H90.56c1.472 0 2.774 1.241 2.774 2.821z"/>
</svg>
