<svg width="60" height="80" viewBox="0 0 60 80" fill="none" xmlns="http://www.w3.org/2000/svg">
<path d="M60 0H0V60H10V80L30 60H60V0Z" fill="#CBCCCC"/>
<path d="M27.6237 33.457C27.6237 31.7258 27.0956 30.2419 26.0394 29.0054C24.9833 27.6864 23.6428 26.8208 22.0179 26.4086C22.1804 25.3369 22.5866 24.224 23.2366 23.0699C23.9677 21.8333 24.7395 20.8441 25.552 20.1022L23.1147 18C16.3716 22.5341 13 27.6864 13 33.457C13 35.6004 13.6906 37.414 15.0717 38.8979C16.534 40.2993 18.2808 41 20.3118 41C22.3429 41 24.049 40.2581 25.4301 38.7742C26.8925 37.2903 27.6237 35.5179 27.6237 33.457ZM47 33.457C47 31.7258 46.4719 30.2419 45.4158 29.0054C44.3596 27.6864 43.0191 26.8208 41.3943 26.4086C41.638 25.2545 42.0848 24.1004 42.7348 22.9462C43.4659 21.7921 44.2378 20.8441 45.0502 20.1022L42.491 18C35.6667 22.6989 32.2545 27.8513 32.2545 33.457C32.2545 35.5179 32.9857 37.2903 34.448 38.7742C35.9104 40.2581 37.6571 41 39.6882 41C41.638 41 43.3441 40.2581 44.8064 38.7742C46.2688 37.2903 47 35.5179 47 33.457Z" fill="white"/>
</svg>
